<svg xmlns="http://www.w3.org/2000/svg" xmlns:xlink="http://www.w3.org/1999/xlink" width="1200" height="1200" viewBox="0 0 512 512" fill="none" class="h-full w-full" id="iconWithBackground"><rect id="r4" width="512" height="512" x="0" y="0" rx="80" fill="url(#linearGradient-iconWithBackground)" stroke="#000000" stroke-width="0" stroke-opacity="100%" paint-order="stroke"/><defs><linearGradient id="linearGradient-iconWithBackground" gradientUnits="userSpaceOnUse" gradientTransform="rotate(0)" style="transform-origin:center center"><stop stop-color="#cf583a"/><stop offset="1" stop-color="#507cc3"/></linearGradient><radialGradient id="glare" cx="0" cy="0" r="1" gradientUnits="userSpaceOnUse" gradientTransform="translate(256) rotate(90) scale(512)"><stop stop-color="white"/><stop offset="1" stop-color="white" stop-opacity="0"/></radialGradient><clipPath id="clip"><use xlink:href="#r4"/></clipPath></defs><svg xmlns="http://www.w3.org/2000/svg" width="340" height="340" viewBox="0 0 24 24" x="86" y="86"><path fill="#ffffff" d="M15.088 6.412a2.844 2.844 0 0 0-1.347-.955l-1.378-.448a.544.544 0 0 1 0-1.025l1.378-.448A2.839 2.839 0 0 0 15.5 1.774l.011-.034l.448-1.377a.544.544 0 0 1 1.027 0l.447 1.377a2.835 2.835 0 0 0 1.799 1.796l1.377.448l.028.007a.544.544 0 0 1 0 1.025l-1.378.448a2.839 2.839 0 0 0-1.798 1.796l-.448 1.377a.544.544 0 0 1-1.026 0l-.448-1.377a2.837 2.837 0 0 0-.45-.848m7.695 3.801l-.766-.248a1.577 1.577 0 0 1-.998-.999l-.25-.764a.302.302 0 0 0-.57 0l-.248.764a1.576 1.576 0 0 1-.984.999l-.765.248a.302.302 0 0 0 0 .57l.765.249a1.578 1.578 0 0 1 1 1.002l.248.764a.302.302 0 0 0 .57 0l.249-.764a1.576 1.576 0 0 1 .999-.999l.765-.248a.302.302 0 0 0 0-.57zM13.61 2.468a3 3 0 0 0-4.367 1.35l-4.26 9.94a2.96 2.96 0 0 0-.053.124l-1.687 3.936a3 3 0 0 0 5.515 2.364L9.693 18h4.615l.935 2.182a3 3 0 1 0 5.515-2.364l-1.687-3.936a2.906 2.906 0 0 0-.053-.125l-.804-1.875l-.14-.037a4.88 4.88 0 0 1-.244-.066a1.328 1.328 0 0 1-.87-1.23a1.28 1.28 0 0 1 .18-.66a1.45 1.45 0 0 1-.68.16c-.238 0-.467-.057-.673-.158a2.554 2.554 0 0 1-.827-.525l2.237 5.22l.018.041l1.705 3.98a1 1 0 1 1-1.838.787L15.627 16H8.374L6.92 19.394a1 1 0 1 1-1.838-.788l1.705-3.979a.365.365 0 0 1 .018-.041l4.22-9.848A1.543 1.543 0 0 1 11 4.47A1.565 1.565 0 0 1 12.05 3l1.34-.44c.075-.025.149-.056.22-.09M9.232 14h5.538L12 7.54z"/></svg></svg>